#!OML:ASF F:\VICON\USERDATA\INSTALL\rory3\rory3.ASF
:FULLY-SPECIFIED
:DEGREES
1041
root 2.51345 23.243 1.34249 -171.772 -4.18593 -178.166
lowerback 17.4953 -2.4951 -1.09862
upperback 4.01189 -4.03525 0.477201
thorax -5.37189 -2.20223 2.02328
lowerneck -12.2418 1.04436 -11.6019
upperneck 39.798 11.1934 0.657063
head 15.736 4.6379 4.56193
rclavicle 3.598e-014 6.75868e-015
rhumerus 55.674 6.05392 -67.8871
rradius 69.5413
rwrist -11.2722
rhand -21.2065 -20.2577
rfingers 7.12502
rthumb 5.17496 -50.1745
lclavicle 3.598e-014 6.75868e-015
lhumerus 11.5898 4.42268 74.1648
lradius 80.0472
lwrist 15.8896
lhand -23.1074 39.4755
lfingers 7.12502
lthumb 3.33941 69.4291
rfemur -76.7658 9.65793 18.8671
rtibia 100.206
rfoot -17.5798 11.1409
rtoes 0.773625
lfemur -23.4963 0.293064 -20.5953
ltibia 20.8144
lfoot -2.99988 -6.72209
ltoes -3.67931
1042
root 2.49939 23.2461 1.37378 -171.728 -4.45108 -178.23
lowerback 17.6238 -2.52249 -1.03158
upperback 4.03714 -4.06471 0.50931
thorax -5.41452 -2.21931 2.03315
lowerneck -12.6967 0.974664 -11.7123
upperneck 40.0061 11.258 0.644006
head 15.949 4.61532 4.62865
rclavicle -9.93923e-016 5.56597e-015
rhumerus 55.8657 5.81681 -68.0942
rradius 69.2619
rwrist -11.0893
rhand -21.0394 -20.1856
rfingers 7.12502
rthumb 5.3363 -50.0984
lclavicle -9.93923e-016 5.56597e-015
lhumerus 12.1015 4.23211 74.3862
lradius 79.5793
lwrist 15.6243
lhand -23.4751 39.9724
lfingers 7.12502
lthumb 2.98429 69.9313
rfemur -77.1097 9.45516 18.5184
rtibia 100.383
rfoot -17.1175 11.343
rtoes -0.662731
lfemur -23.461 0.419164 -20.8169
ltibia 20.4081
lfoot -2.75806 -7.02941
ltoes -3.29759
1043
root 2.48803 23.2496 1.39688 -171.674 -4.58346 -178.352
lowerback 17.6602 -2.48989 -1.09014
upperback 4.0962 -4.04112 0.520697
thorax -5.36708 -2.21208 2.07308
lowerneck -12.9482 0.965811 -11.8075
upperneck 39.9268 11.3049 0.545584
head 15.9723 4.59378 4.61721
rclavicle -3.12092e-014 1.03368e-014
rhumerus 56.0833 5.55817 -68.2351
rradius 69.0656
rwrist -10.9537
rhand -20.9927 -20.2256
rfingers 7.12502
rthumb 5.38142 -50.1373
lclavicle -3.12092e-014 1.03368e-014
lhumerus 12.6594 4.10945 74.6304
lradius 79.0592
lwrist 15.4829
lhand -23.4795 39.8516
lfingers 7.12502
lthumb 2.98004 69.8105
rfemur -77.4242 9.36791 18.1502
rtibia 100.586
rfoot -16.8287 11.4412
rtoes -2.31251
lfemur -23.3585 0.696777 -21.1115
ltibia 19.9372
lfoot -2.44849 -7.35913
ltoes -3.45373
1044
root 2.47495 23.2581 1.42324 -171.624 -4.83878 -178.373
lowerback 17.6219 -2.49904 -0.992575
upperback 4.23173 -4.05092 0.561555
thorax -5.20501 -2.22904 2.05569
lowerneck -13.3495 0.943046 -11.8834
upperneck 39.9667 11.3229 0.569435
head 16.0823 4.5641 4.66707
rclavicle -5.62561e-014 1.35174e-014
rhumerus 56.3779 5.24813 -68.2506
rradius 68.8568
rwrist -10.8441
rhand -21.057 -20.1904
rfingers 7.12502
rthumb 5.31928 -50.1037
lclavicle -5.62561e-014 1.35174e-014
lhumerus 13.3292 3.99183 74.8951
lradius 78.5324
lwrist 15.3635
lhand -23.4442 39.6449
lfingers 7.12502
lthumb 3.0141 69.6033
rfemur -77.6588 9.14215 17.9196
rtibia 100.793
rfoot -16.7313 11.4387
rtoes -4.41527
lfemur -23.2893 0.716468 -21.238
ltibia 19.4508
lfoot -2.01472 -7.60564
ltoes -3.22686
1045
root 2.46012 23.2736 1.45224 -171.493 -5.00316 -178.37
lowerback 17.4388 -2.43835 -0.933383
upperback 4.40521 -3.97465 0.654702
thorax -4.92229 -2.20665 2.08612
lowerneck -13.8775 0.876825 -12.0254
upperneck 40.0393 11.3214 0.58737
head 16.2417 4.50612 4.73262
rclavicle -3.97569e-015 1.03368e-014
rhumerus 56.6386 4.84637 -68.1273
rradius 68.7119
rwrist -10.8287
rhand -21.0247 -20.0271
rfingers 7.12502
rthumb 5.3505 -49.9395
lclavicle -3.97569e-015 1.03368e-014
lhumerus 14.0157 3.81634 75.2384
lradius 78.0752
lwrist 15.2288
lhand -23.4714 39.4455
lfingers 7.12502
lthumb 2.98784 69.4043
rfemur -77.9747 8.97251 17.717
rtibia 100.896
rfoot -16.5922 11.4343
rtoes -5.90108
lfemur -23.2904 0.68668 -21.3187
ltibia 18.9117
lfoot -1.4838 -7.75119
ltoes -2.74833
1046
root 2.45072 23.2945 1.47739 -171.504 -5.02376 -178.325
lowerback 17.4516 -2.3256 -0.937186
upperback 4.5739 -3.84985 0.737934
thorax -4.74811 -2.16075 2.14454
lowerneck -14.3427 0.852802 -12.1031
upperneck 39.9721 11.3378 0.512879
head 16.3225 4.45972 4.73507
rclavicle -5.30755e-014 2.38542e-014
rhumerus 56.8079 4.48356 -68.0609
rradius 68.6432
rwrist -10.8062
rhand -21.0101 -19.9345
rfingers 7.12502
rthumb 5.3646 -49.8465
lclavicle -5.30755e-014 2.38542e-014
lhumerus 14.5473 3.61596 75.4426
lradius 77.7639
lwrist 15.2541
lhand -23.4238 39.4151
lfingers 7.12502
lthumb 3.0338 69.3733
rfemur -78.0677 9.03839 17.6148
rtibia 100.895
rfoot -16.4095 11.5584
rtoes -6.29788
lfemur -23.0647 0.98728 -21.3775
ltibia 18.2741
lfoot -1.01479 -8.10642
ltoes -2.20452
